<svg id="ejf4is8bhx0q1" xmlns="http://www.w3.org/2000/svg" xmlns:xlink="http://www.w3.org/1999/xlink" viewBox="0 0 59 84" shape-rendering="geometricPrecision" text-rendering="geometricPrecision" width="59" height="84"><style><![CDATA[#ejf4is8bhx0q2_to {animation: ejf4is8bhx0q2_to__to 1400ms linear infinite normal forwards}@keyframes ejf4is8bhx0q2_to__to { 0% {transform: translate(29.282101px,26.748821px)} 50% {transform: translate(29.282101px,29.748821px)} 100% {transform: translate(29.282101px,26.748821px)} }#ejf4is8bhx0q13_to {animation: ejf4is8bhx0q13_to__to 1400ms linear infinite normal forwards}@keyframes ejf4is8bhx0q13_to__to { 0% {transform: translate(29.282450px,69.727496px)} 50% {transform: translate(29.282450px,71.727496px)} 100% {transform: translate(29.282450px,69.727496px)} }]]></style><g id="ejf4is8bhx0q2_to" transform="translate(29.282101,26.748821)"><g id="ejf4is8bhx0q2" transform="translate(-29.282101,-30.748821)"><g id="ejf4is8bhx0q3"><path id="ejf4is8bhx0q4" d="M43.327200,33.532200L43.327200,58.457200L15.140300,58.457200L15.140300,33.532200L3.865480,33.532200L29.233700,3.040530L54.602000,33.532200L43.327200,33.532200Z" transform="matrix(1 0 0 1 0 4)" fill="rgb(76,214,43)" stroke="none" stroke-width="1"/><path id="ejf4is8bhx0q5" d="M55.639200,36.321100C54.790200,36.321100,53.950000,35.971400,53.370300,35.294400L29.281200,7.160710L5.195000,35.294400C4.167380,36.494500,2.328780,36.665100,1.075730,35.691600C-0.177327,34.709700,-0.361767,32.950200,0.659999,31.755700L27.012200,0.975602C28.127700,-0.325201,30.431800,-0.325201,31.547200,0.975602L57.902300,31.755700C58.927000,32.950200,58.739700,34.712500,57.486600,35.691600C56.945000,36.114100,56.292100,36.321100,55.639200,36.321100Z" transform="matrix(1 0 0 1 0 3.99944337000000)" fill="rgb(76,214,43)" stroke="none" stroke-width="1"/><path id="ejf4is8bhx0q6" d="M14.642300,61.498200C13.023300,61.498200,11.714600,60.247800,11.714600,58.700800L11.714600,33.524000C11.714600,31.977000,13.023300,30.726600,14.642300,30.726600C16.261300,30.726600,17.570000,31.977000,17.570000,33.524000L17.570000,58.700800C17.570000,60.247800,16.261300,61.498200,14.642300,61.498200Z" transform="matrix(1 0 0 1 0 4)" fill="rgb(76,214,43)" stroke="none" stroke-width="1"/><path id="ejf4is8bhx0q7" d="M43.919300,61.497900L14.642300,61.497900C13.023300,61.497900,11.714600,60.247500,11.714600,58.700500C11.714600,57.153500,13.023300,55.903100,14.642300,55.903100L43.919300,55.903100C45.538300,55.903100,46.847000,57.153500,46.847000,58.700500C46.847000,60.247500,45.538300,61.497900,43.919300,61.497900Z" transform="matrix(1 0 0 1 0 4)" fill="rgb(76,214,43)" stroke="none" stroke-width="1"/><path id="ejf4is8bhx0q8" d="M43.919900,61.498200C42.300900,61.498200,40.992200,60.247800,40.992200,58.700800L40.992200,33.524000C40.992200,31.977000,42.300900,30.726600,43.919900,30.726600C45.538900,30.726600,46.847600,31.977000,46.847600,33.524000L46.847600,58.700800C46.847600,60.247800,45.538900,61.498200,43.919900,61.498200Z" transform="matrix(1 0 0 1 0 4)" fill="rgb(76,214,43)" stroke="none" stroke-width="1"/><path id="ejf4is8bhx0q9" d="M14.643100,36.321400L2.929410,36.321400C1.310390,36.321400,0.001709,35.071000,0.001709,33.524000C0.001709,31.977000,1.310390,30.726600,2.929410,30.726600L14.643100,30.726600C16.262100,30.726600,17.570800,31.977000,17.570800,33.524000C17.570800,35.071000,16.262100,36.321400,14.643100,36.321400Z" transform="matrix(1 0 0 1 0 3.95400000000000)" fill="rgb(76,214,43)" stroke="none" stroke-width="1"/><path id="ejf4is8bhx0q10" d="M55.636500,36.321400L43.919900,36.321400C42.300900,36.321400,40.992200,35.071000,40.992200,33.524000C40.992200,31.977000,42.300900,30.726600,43.919900,30.726600L55.636500,30.726600C57.255500,30.726600,58.564200,31.977000,58.564200,33.524000C58.564200,35.071000,57.255500,36.321400,55.636500,36.321400Z" transform="matrix(1 0 0 1 0 4)" fill="rgb(76,214,43)" stroke="none" stroke-width="1"/><path  id="ejf4is8bhx0q11" d="M34.872000,39.201400L23.597300,39.201400C22.038500,39.201400,20.778600,37.922200,20.778600,36.339700C20.778600,34.757200,22.038500,33.478000,23.597300,33.478000L34.872000,33.478000C36.430800,33.478000,37.690700,34.757200,37.690700,36.339700C37.690700,37.922200,36.430800,39.201400,34.872000,39.201400Z" transform="matrix(1 0 0 1 0 4)" fill="rgb(63,176,35)" stroke="none" stroke-width="1"/><path  id="ejf4is8bhx0q12" d="M29.234200,44.922200C27.675500,44.922200,26.415500,43.643000,26.415500,42.060500L26.415500,30.619400C26.415500,29.036900,27.675500,27.757700,29.234200,27.757700C30.793000,27.757700,32.052900,29.036900,32.052900,30.619400L32.052900,42.060500C32.052900,43.643000,30.793000,44.922200,29.234200,44.922200Z" transform="matrix(1 0 0 1 0 4)" fill="rgb(63,176,35)" stroke="none" stroke-width="1"/></g></g></g><g id="ejf4is8bhx0q13_to" transform="translate(29.282450,69.727496)"><rect id="ejf4is8bhx0q13" width="35.177300" height="5.590710" rx="2.795360" ry="2.795360" transform="translate(-17.588650,-2.795360)" fill="rgb(77,216,43)" stroke="none" stroke-width="1"/></g><rect id="ejf4is8bhx0q14" width="35.177300" height="5.590710" rx="2.795360" ry="2.795360" transform="matrix(1 0 0 1 11.91135000000000 78.40930000000000)" fill="rgb(77,216,43)" stroke="none" stroke-width="1"/></svg>
